<svg width="134" height="151" viewBox="0 0 134 151" fill="none" xmlns="http://www.w3.org/2000/svg">
<path d="M118.801 37.8217C118.801 37.8217 125.556 34.125 125.534 31.8806C125.483 26.2256 108.305 17.2261 108.305 17.2261C108.305 17.2261 119.307 15.6638 118.801 12.8693C115.86 -3.41356 52.6649 10.4929 52.6649 10.4929C52.6649 10.4929 56.0095 2.69618 54.0438 1.58132C45.3083 -3.35488 22.3216 24.5827 17.114 31.1105C17.0627 31.0225 17.0113 30.9418 16.96 30.8538C13.9674 26.0129 10.5715 22.683 9.38331 23.4165C8.46648 23.9813 9.11926 26.7757 10.8136 30.2303C7.75502 28.1253 5.20257 27.1351 4.52045 27.9273C3.61096 28.9908 6.37611 32.8561 10.7109 36.5528C11.0409 36.8388 11.371 37.1102 11.701 37.3743C8.48848 46.3152 -0.0196755 71.8983 4.82851 79.4237C5.68666 80.7586 11.4737 78.8075 11.4737 78.8075C11.4737 78.8075 14.6789 121.018 18.801 125.14C20.4879 126.827 25.3361 118.209 25.3361 118.209C25.3361 118.209 27.0157 132.182 30.8811 133.26C33.0155 133.854 37.8123 127.715 37.8123 127.715C37.8123 127.715 47.736 146.91 54.8433 147.188C57.5424 147.291 61.9725 142.362 61.9725 142.362C61.9725 142.362 64.5837 149.455 66.9674 149.455C69.3512 149.455 71.9623 142.362 71.9623 142.362C71.9623 142.362 76.3924 147.291 79.0915 147.188C86.1914 146.91 96.1225 127.715 96.1225 127.715C96.1225 127.715 100.912 133.854 103.054 133.26C106.919 132.182 108.599 118.209 108.599 118.209C108.599 118.209 113.447 126.82 115.134 125.14C118.963 121.312 122.461 78.8075 122.461 78.8075C122.461 78.8075 127.39 78.9249 127.713 77.6193C135.773 45.5524 118.801 37.8217 118.801 37.8217Z" fill="#5B453B"/>
<path d="M118.801 37.8217C118.801 37.8217 125.556 34.125 125.534 31.8806C125.483 26.2256 108.305 17.2261 108.305 17.2261C108.305 17.2261 119.307 15.6638 118.801 12.8693C115.86 -3.41356 52.6649 10.4929 52.6649 10.4929C52.6649 10.4929 56.0095 2.69618 54.0438 1.58132C45.3083 -3.35488 22.3216 24.5827 17.114 31.1105C17.0627 31.0225 17.0113 30.9418 16.96 30.8538C13.9674 26.0129 10.5715 22.683 9.38331 23.4165C8.46648 23.9813 9.11926 26.7757 10.8136 30.2303C7.75502 28.1253 5.20257 27.1351 4.52045 27.9273C3.61096 28.9908 6.37611 32.8561 10.7109 36.5528C11.0409 36.8388 11.371 37.1102 11.701 37.3743C8.48848 46.3152 -0.0196755 71.8983 4.82851 79.4237C5.68666 80.7586 11.4737 78.8075 11.4737 78.8075C11.4737 78.8075 14.6789 121.018 18.801 125.14C20.4879 126.827 25.3361 118.209 25.3361 118.209C25.3361 118.209 27.0157 132.182 30.8811 133.26C33.0155 133.854 37.8123 127.715 37.8123 127.715C37.8123 127.715 47.736 146.909 54.8433 147.188C57.5424 147.291 61.9725 142.362 61.9725 142.362C61.9725 142.362 64.5837 149.455 66.9674 149.455C69.3512 149.455 71.9623 142.362 71.9623 142.362C71.9623 142.362 76.3924 147.291 79.0915 147.188C86.1914 146.909 96.1225 127.715 96.1225 127.715C96.1225 127.715 100.912 133.854 103.054 133.26C106.919 132.182 108.599 118.209 108.599 118.209C108.599 118.209 113.447 126.82 115.134 125.14C118.963 121.312 122.461 78.8075 122.461 78.8075C122.461 78.8075 127.39 78.9249 127.713 77.6193C135.773 45.5524 118.801 37.8217 118.801 37.8217Z" stroke="black" stroke-width="1.46692" stroke-miterlimit="10" stroke-linecap="round" stroke-linejoin="round"/>
<path d="M132.847 82.8412C132.847 97.7451 120.1 101.713 120.1 101.713L122.373 78.8071C122.373 78.8071 132.847 75.2205 132.847 82.8412Z" fill="#F0D5D1" stroke="black" stroke-width="1.46692" stroke-miterlimit="10" stroke-linecap="round" stroke-linejoin="round"/>
<path d="M1 82.8412C1 97.7451 13.7476 101.713 13.7476 101.713L11.4738 78.8071C11.4738 78.8071 1 75.2205 1 82.8412Z" fill="#F0D5D1" stroke="black" stroke-width="1.46692" stroke-miterlimit="10" stroke-linecap="round" stroke-linejoin="round"/>
<path d="M11.4741 78.8064L11.1514 73.4961" stroke="black" stroke-width="1.46692" stroke-miterlimit="10" stroke-linecap="round" stroke-linejoin="round"/>
<path d="M122.227 80.2884L122.777 74.208" stroke="black" stroke-width="1.46692" stroke-miterlimit="10" stroke-linecap="round" stroke-linejoin="round"/>
<path d="M123.627 103.466C123.253 103.466 122.952 103.165 122.952 102.791V97.9209C122.952 97.5468 123.253 97.2461 123.627 97.2461C124.001 97.2461 124.302 97.5468 124.302 97.9209V102.791C124.294 103.165 123.994 103.466 123.627 103.466Z" fill="#9D9D9C"/>
<path d="M82.7802 110.244C82.7802 111.747 81.8267 115.642 81.8267 115.642C81.8267 115.642 82.7802 119.544 82.7802 121.047C82.7802 122.551 81.8267 126.453 81.8267 126.453C81.8267 126.453 82.7802 130.348 82.7802 131.851V131.932C82.7802 133.436 81.8267 137.33 81.8267 137.33C81.8267 137.33 82.7802 141.232 82.7802 142.736C82.7802 143.491 82.5382 144.841 82.3035 146V146.007C81.1959 146.719 80.1177 147.159 79.0909 147.195C76.3918 147.305 71.9616 142.377 71.9616 142.377C71.9616 142.377 69.3505 149.469 66.9668 149.469C64.583 149.469 61.9719 142.377 61.9719 142.377C61.9719 142.377 57.5418 147.305 54.8426 147.195C53.8158 147.159 52.7376 146.719 51.6301 146.007V146C51.3954 144.841 51.1533 143.491 51.1533 142.736C51.1533 141.232 52.1142 137.33 52.1142 137.33C52.1142 137.33 51.1533 133.436 51.1533 131.932V131.851C51.1533 130.348 52.1142 126.453 52.1142 126.453C52.1142 126.453 51.1533 122.551 51.1533 121.047C51.1533 119.544 52.1142 115.642 52.1142 115.642C52.1142 115.642 51.1533 111.747 51.1533 110.244C51.1533 108.74 52.1142 104.838 52.1142 104.838C52.1142 104.838 51.1533 100.943 51.1533 99.4397C51.1533 99.2123 51.1753 98.9336 51.212 98.6182C55.8915 96.7919 60.3803 95.0976 64.0696 94.4521C64.7737 96.6525 65.8079 98.0461 66.9668 98.0461C68.1256 98.0461 69.1598 96.6599 69.8566 94.4668C73.5533 95.1343 78.0494 96.8652 82.7289 98.7282C82.7655 98.9996 82.7802 99.2417 82.7802 99.4397C82.7802 100.943 81.8267 104.838 81.8267 104.838C81.8267 104.838 82.7802 108.74 82.7802 110.244Z" fill="#9D9D9C"/>
<path d="M37.8115 127.721C37.8115 127.721 47.7353 146.915 54.8425 147.194C57.5417 147.297 61.9718 142.368 61.9718 142.368C61.9718 142.368 64.5829 149.461 66.9666 149.461C69.3504 149.461 71.9615 142.368 71.9615 142.368C71.9615 142.368 76.3916 147.297 79.0908 147.194C86.1907 146.915 96.1218 127.721 96.1218 127.721" stroke="black" stroke-width="1.46692" stroke-miterlimit="10" stroke-linecap="round" stroke-linejoin="round"/>
<path d="M66.9672 94.1725C56.1927 94.1505 34.5336 108.783 24.9692 103.832C19.7763 101.148 19.4756 86.9479 19.4756 81.1022C19.4756 68.4133 27.0522 51.177 27.0522 51.177C27.0522 51.177 40.4599 57.7048 45.0441 56.6706C48.6087 55.8711 55.8406 46.8202 55.8406 46.8202C55.8406 46.8202 63.388 53.7807 66.6299 54.2062C72.8276 55.0203 90.2033 45.874 90.2033 45.874C90.2033 45.874 96.6211 54.8296 99.973 55.1523C101.814 55.3283 106.207 51.177 106.207 51.177C106.207 51.177 113.784 68.4133 113.784 81.1022C113.784 86.9479 113.491 101.148 108.29 103.832C98.8582 108.695 77.5731 94.1945 66.9672 94.1725Z" fill="#F0D5D1" stroke="black" stroke-width="1.46692" stroke-miterlimit="10" stroke-linecap="round" stroke-linejoin="round"/>
<path d="M54.0659 91.7528C57.2741 91.7528 59.8749 89.152 59.8749 85.9438C59.8749 82.7356 57.2741 80.1348 54.0659 80.1348C50.8576 80.1348 48.2568 82.7356 48.2568 85.9438C48.2568 89.152 50.8576 91.7528 54.0659 91.7528Z" fill="white" stroke="black" stroke-width="1.46692" stroke-miterlimit="10" stroke-linecap="round" stroke-linejoin="round"/>
<path d="M53.9757 87.381C54.7696 87.381 55.4133 86.7374 55.4133 85.9434C55.4133 85.1495 54.7696 84.5059 53.9757 84.5059C53.1817 84.5059 52.5381 85.1495 52.5381 85.9434C52.5381 86.7374 53.1817 87.381 53.9757 87.381Z" fill="black" stroke="black" stroke-width="1.46692" stroke-miterlimit="10" stroke-linecap="round" stroke-linejoin="round"/>
<path d="M79.8618 91.7528C83.07 91.7528 85.6708 89.152 85.6708 85.9438C85.6708 82.7356 83.07 80.1348 79.8618 80.1348C76.6535 80.1348 74.0527 82.7356 74.0527 85.9438C74.0527 89.152 76.6535 91.7528 79.8618 91.7528Z" fill="white" stroke="black" stroke-width="1.46692" stroke-miterlimit="10" stroke-linecap="round" stroke-linejoin="round"/>
<path d="M80.1046 87.381C80.8985 87.381 81.5422 86.7374 81.5422 85.9434C81.5422 85.1495 80.8985 84.5059 80.1046 84.5059C79.3106 84.5059 78.667 85.1495 78.667 85.9434C78.667 86.7374 79.3106 87.381 80.1046 87.381Z" fill="black" stroke="black" stroke-width="1.46692" stroke-miterlimit="10" stroke-linecap="round" stroke-linejoin="round"/>
<path d="M88.5893 74.8319C88.9498 74.8319 89.2421 74.5397 89.2421 74.1791C89.2421 73.8186 88.9498 73.5264 88.5893 73.5264C88.2288 73.5264 87.9365 73.8186 87.9365 74.1791C87.9365 74.5397 88.2288 74.8319 88.5893 74.8319Z" fill="black"/>
<path d="M70.7735 87.7842C70.7735 93.4465 69.0719 98.038 66.9668 98.038C64.8618 98.038 63.1602 93.4465 63.1602 87.7842" fill="#F0D5D1"/>
<path d="M70.7735 87.7842C70.7735 93.4465 69.0719 98.038 66.9668 98.038C64.8618 98.038 63.1602 93.4465 63.1602 87.7842" stroke="black" stroke-width="1.46692" stroke-miterlimit="10" stroke-linecap="round" stroke-linejoin="round"/>
<path d="M71.1417 102.527C71.1417 106.305 69.2714 109.363 66.9683 109.363C64.6653 109.363 62.7949 106.305 62.7949 102.527" stroke="black" stroke-width="1.46692" stroke-miterlimit="10" stroke-linecap="round" stroke-linejoin="round"/>
</svg>
